<svg xmlns="http://www.w3.org/2000/svg" width="176.185" height="157.692" viewBox="0 0 176.185 157.692">
  <g id="Group_12195" data-name="Group 12195" transform="translate(-688.867 -541.5)">
    <path id="Path_11188" data-name="Path 11188" d="M322.462,89.724h-.024A61.942,61.942,0,0,0,303.97,210.787l12.38,17.684a7.432,7.432,0,0,0,12.176,0l12.38-17.684A61.942,61.942,0,0,0,322.462,89.724M355.448,198.1a56.682,56.682,0,0,1-16.017,7.955l-1.614.5-.969,1.385-12.38,17.684a2.477,2.477,0,0,1-4.059,0l-12.38-17.684-.969-1.385-1.614-.5A56.99,56.99,0,0,1,322.438,94.679h.022a56.982,56.982,0,0,1,45.653,91.045A57.223,57.223,0,0,1,355.448,198.1" transform="translate(454.977 466.64)" fill="#f9d641"/>
    <path id="Path_11189" data-name="Path 11189" d="M283.8,144.55l-2.342-4.366A72.13,72.13,0,0,0,298.377,127.6,71.841,71.841,0,1,0,175.737,76.8a72.968,72.968,0,0,0,1.023,12.189c.192,1.133-.064,2.3.182,3.42l-4.364,1.022a77.632,77.632,0,0,1-1.8-16.631,76.8,76.8,0,1,1,131.1,54.3A77.076,77.076,0,0,1,283.8,144.55" transform="translate(529.838 541.5)" fill="#f9d641"/>
    <path id="Path_11190" data-name="Path 11190" d="M1077.5,348.843c0,12.581-4.533,22.78-10.124,22.78-2.288,0-4.4-1.707-6.093-4.586-2.448-4.158,1.364-10.76,1.364-18.194,0-7.413-3.821-14-1.384-18.16,1.7-2.9,3.817-4.62,6.114-4.62,5.591,0,10.124,10.2,10.124,22.78" transform="translate(-212.445 269.453)" fill="#f9d641"/>
    <path id="Path_11191" data-name="Path 11191" d="M105.342,348.843c0,12.581,4.533,22.78,10.124,22.78,2.287,0,4.4-1.707,6.093-4.586,2.448-4.158-1.364-10.76-1.364-18.194,0-7.413,3.821-14,1.384-18.16-1.7-2.9-3.817-4.62-6.113-4.62-5.592,0-10.124,10.2-10.124,22.78" transform="translate(584.437 269.453)" fill="#f9d641"/>
    <path id="Path_11192" data-name="Path 11192" d="M799.562,807.665c2.266,3.422-.662,9.352-6.541,13.244s-12.48,4.273-14.747.851.662-9.352,6.541-13.244,12.48-4.273,14.746-.851" transform="translate(23.622 -130.417)" fill="#f9d641"/>
    <path id="Path_11193" data-name="Path 11193" d="M437.695,426.143a7.432,7.432,0,1,1-7.432-7.432,7.432,7.432,0,0,1,7.432,7.432" transform="translate(319.543 192.153)" fill="#f9d641"/>
    <path id="Path_11194" data-name="Path 11194" d="M604.357,426.143a7.432,7.432,0,1,1-7.432-7.432,7.432,7.432,0,0,1,7.432,7.432" transform="translate(180.491 192.153)" fill="#f9d641"/>
    <path id="Path_11195" data-name="Path 11195" d="M771.02,426.143a7.432,7.432,0,1,1-7.432-7.432,7.432,7.432,0,0,1,7.432,7.432" transform="translate(41.437 192.153)" fill="#f9d641"/>
    <path id="Path_11196" data-name="Path 11196" d="M316.962,95.226h-.024a61.942,61.942,0,0,0-18.469,121.063l12.38,17.684a7.432,7.432,0,0,0,12.176,0l12.38-17.684A61.942,61.942,0,0,0,316.962,95.226M349.947,203.6a56.682,56.682,0,0,1-16.017,7.955l-1.614.5-.969,1.385-12.38,17.684a2.477,2.477,0,0,1-4.059,0l-12.38-17.684-.969-1.385-1.614-.5a56.99,56.99,0,0,1,16.993-111.379h.022a56.982,56.982,0,0,1,45.653,91.045A57.223,57.223,0,0,1,349.947,203.6" transform="translate(459.567 462.049)" fill="#f9d641"/>
    <path id="Path_11197" data-name="Path 11197" d="M278.3,150.052l-2.342-4.366A72.134,72.134,0,0,0,292.876,133.1,71.841,71.841,0,1,0,170.236,82.3a72.966,72.966,0,0,0,1.023,12.189c.192,1.133-.064,2.3.182,3.42l-4.364,1.022a77.63,77.63,0,0,1-1.8-16.631,76.8,76.8,0,1,1,131.1,54.3A77.077,77.077,0,0,1,278.3,150.052" transform="translate(534.427 536.909)" fill="#f9d641"/>
    <path id="Path_11198" data-name="Path 11198" d="M1072,354.345c0,12.581-4.533,22.78-10.124,22.78-2.287,0-4.4-1.707-6.093-4.586-2.448-4.158,1.364-10.76,1.364-18.194,0-7.413-3.821-14-1.384-18.16,1.7-2.9,3.817-4.62,6.114-4.62,5.592,0,10.124,10.2,10.124,22.78" transform="translate(-207.855 264.862)" fill="#f9d641"/>
    <path id="Path_11199" data-name="Path 11199" d="M99.84,354.345c0,12.581,4.533,22.78,10.124,22.78,2.288,0,4.4-1.707,6.093-4.586,2.448-4.158-1.364-10.76-1.364-18.194,0-7.413,3.821-14,1.384-18.16-1.7-2.9-3.817-4.62-6.114-4.62-5.592,0-10.124,10.2-10.124,22.78" transform="translate(589.027 264.862)" fill="#f9d641"/>
    <path id="Path_11200" data-name="Path 11200" d="M794.061,813.167c2.266,3.422-.663,9.352-6.541,13.244s-12.481,4.273-14.747.851.662-9.352,6.541-13.244,12.481-4.273,14.746-.851" transform="translate(28.212 -135.007)" fill="#f9d641"/>
    <path id="Path_11201" data-name="Path 11201" d="M432.193,431.645a7.432,7.432,0,1,1-7.432-7.432,7.432,7.432,0,0,1,7.432,7.432" transform="translate(324.134 187.562)" fill="#f9d641"/>
    <path id="Path_11202" data-name="Path 11202" d="M598.856,431.645a7.432,7.432,0,1,1-7.432-7.432,7.432,7.432,0,0,1,7.432,7.432" transform="translate(185.08 187.562)" fill="#f9d641"/>
    <path id="Path_11203" data-name="Path 11203" d="M765.519,431.645a7.432,7.432,0,1,1-7.432-7.432,7.432,7.432,0,0,1,7.432,7.432" transform="translate(46.027 187.562)" fill="#f9d641"/>
  </g>
</svg>
