<svg xmlns="http://www.w3.org/2000/svg" width="19.408" height="22.095" viewBox="0 0 19.408 22.095">
  <g id="Group_8792" data-name="Group 8792" transform="translate(0.7 0.7)">
    <path id="Path_2492" data-name="Path 2492" d="M366.146,32.464v3.707a1.059,1.059,0,0,0,1.059,1.059h3.707" transform="translate(-352.906 -32.428)" fill="none" stroke="#535353" stroke-miterlimit="10" stroke-width="1.4"/>
    <path id="Path_2493" data-name="Path 2493" d="M97.979,53.151a.99.99,0,0,1-1.059-.9V33.367a.99.99,0,0,1,1.059-.9h11.743a1.161,1.161,0,0,1,.749.264l4.146,3.524a.838.838,0,0,1,.31.637V51.858a1.433,1.433,0,0,1-1.535,1.3Z" transform="translate(-96.92 -32.467)" fill="none" stroke="#535353" stroke-miterlimit="10" stroke-width="1.4"/>
    <path id="Path_2494" data-name="Path 2494" d="M140,170.449c0-2.02.689-4.123,2.263-5.018,1.468-.835,2.453.674,3.955.674,1.474,0,2.487-1.509,3.894-.726,1.606.893,2.324,3.02,2.324,5.07Z" transform="translate(-137.211 -154.188)" fill="none" stroke="#535353" stroke-miterlimit="10" stroke-width="1.4"/>
    <path id="Path_2495" data-name="Path 2495" d="M211.575,77.332a1.867,1.867,0,1,1-1.865-1.951,1.91,1.91,0,0,1,1.865,1.951" transform="translate(-200.707 -70.172)" fill="none" stroke="#535353" stroke-miterlimit="10" stroke-width="1.4"/>
  </g>
</svg>
