<svg xmlns="http://www.w3.org/2000/svg" width="23.806" height="27.194" viewBox="0 0 23.806 27.194">
  <g id="Group_10293" data-name="Group 10293" transform="translate(-80.4 -711.396)">
    <path id="Path_2492" data-name="Path 2492" d="M366.146,32.464v4.654a1.329,1.329,0,0,0,1.329,1.329h4.654" transform="translate(-268.525 679.584)" fill="none" stroke="#f9d641" stroke-miterlimit="10" stroke-width="1.2"/>
    <path id="Path_2493" data-name="Path 2493" d="M98.249,58.434A1.243,1.243,0,0,1,96.92,57.3V33.6a1.243,1.243,0,0,1,1.329-1.13h14.742a1.458,1.458,0,0,1,.94.331l5.2,4.424a1.052,1.052,0,0,1,.389.8V56.811a1.8,1.8,0,0,1-1.927,1.632Z" transform="translate(-15.92 679.536)" fill="none" stroke="#f9d641" stroke-miterlimit="10" stroke-width="1.2"/>
    <path id="Path_2494" data-name="Path 2494" d="M140,171.8c0-2.536.865-5.176,2.841-6.3,1.843-1.048,3.079.846,4.965.846,1.85,0,3.122-1.894,4.888-.911,2.016,1.121,2.918,3.791,2.918,6.365Z" transform="translate(-55.499 560.616)" fill="none" stroke="#f9d641" stroke-miterlimit="10" stroke-width="1.2"/>
    <path id="Path_2495" data-name="Path 2495" d="M212.528,77.83a2.344,2.344,0,1,1-2.341-2.449,2.4,2.4,0,0,1,2.341,2.449" transform="translate(-117.885 643.162)" fill="none" stroke="#f9d641" stroke-miterlimit="10" stroke-width="1.2"/>
  </g>
</svg>
