<svg id="Group_12294" data-name="Group 12294" xmlns="http://www.w3.org/2000/svg" width="29.278" height="21.084" viewBox="0 0 29.278 21.084">
  <path id="Path_11206" data-name="Path 11206" d="M128.417,327.384l-.258-.258-.03-.03a9.338,9.338,0,0,1-10.527-.7c-.444.306-.9.648-1.344,1.014a1.527,1.527,0,0,0-.558,1.182v2.165h15.386v-.714l-2.261-2.261Z" transform="translate(-108.76 -310.918)" fill="#535353"/>
  <path id="Path_11207" data-name="Path 11207" d="M194.333,122.3h-.684a2.852,2.852,0,0,0-2.849,2.849v3.161a1.424,1.424,0,0,0,.636,1.188v2.7a5.581,5.581,0,0,0,5.1-.012V129.5a1.424,1.424,0,0,0,.636-1.188v-3.161A2.84,2.84,0,0,0,194.333,122.3Z" transform="translate(-179.355 -119.061)" fill="#535353"/>
  <path id="Path_11208" data-name="Path 11208" d="M382.444,133.421A21.246,21.246,0,0,0,378.671,131a.113.113,0,0,1-.066-.108v-2.555a1.193,1.193,0,0,0,.534-1v-2.651a2.386,2.386,0,0,0-2.387-2.387H376.2a9.349,9.349,0,0,1,.09,9.669l.03.03.12.12.138.138.408.408,3.575,3.575h2.351v-1.818A1.307,1.307,0,0,0,382.444,133.421Z" transform="translate(-353.634 -119.061)" fill="#535353"/>
  <path id="Path_11209" data-name="Path 11209" d="M128.7,87.459l-4.721-4.721-.408-.408-.138-.138h0l-.12-.12L123,82.39l-.684-.684a8.144,8.144,0,1,0-.96.96l.684.684-.318.318h0l.258.258.408.408,4.721,4.721a1.13,1.13,0,0,0,1.6,0,1.133,1.133,0,0,0,0-1.6Zm-7.81-6.208a6.784,6.784,0,1,1,0-9.6A6.767,6.767,0,0,1,120.892,81.251Z" transform="translate(-101.475 -68.3)" fill="#535353"/>
  <path id="Path_11210" data-name="Path 11210" d="M6.682,122.3H6.16a2.386,2.386,0,0,0-2.387,2.387v2.651a1.194,1.194,0,0,0,.534,1v2.555a.119.119,0,0,1-.066.108,20.881,20.881,0,0,0-3.773,2.423,1.3,1.3,0,0,0-.468,1v1.818H5.83a2.689,2.689,0,0,1,.936-1.578c.4-.324.8-.63,1.194-.912A9.339,9.339,0,0,1,6.682,122.3Z" transform="translate(0 -119.061)" fill="#535353"/>
</svg>
