<svg xmlns="http://www.w3.org/2000/svg" width="27.236" height="19.613" viewBox="0 0 27.236 19.613">
  <g id="group" transform="translate(0 -68.3)">
    <g id="Group_12294" data-name="Group 12294" transform="translate(0 68.3)">
      <path id="Path_11206" data-name="Path 11206" d="M127.529,327.315l-.24-.24-.028-.028a8.686,8.686,0,0,1-9.793-.647c-.413.285-.837.6-1.25.943a1.42,1.42,0,0,0-.519,1.1v2.014h14.313v-.664l-2.1-2.1Z" transform="translate(-109.244 -311.998)" fill="#f9d641"/>
      <path id="Path_11207" data-name="Path 11207" d="M194.087,122.3h-.636a2.653,2.653,0,0,0-2.65,2.65v2.941a1.324,1.324,0,0,0,.591,1.1v2.511a5.192,5.192,0,0,0,4.749-.011V129a1.324,1.324,0,0,0,.592-1.1v-2.941A2.642,2.642,0,0,0,194.087,122.3Z" transform="translate(-180.153 -119.287)" fill="#f9d641"/>
      <path id="Path_11208" data-name="Path 11208" d="M382.009,132.645a19.764,19.764,0,0,0-3.51-2.254.105.105,0,0,1-.061-.1v-2.377a1.11,1.11,0,0,0,.5-.926v-2.466a2.22,2.22,0,0,0-2.221-2.221H376.2a8.7,8.7,0,0,1,.084,8.995l.028.028.112.112.128.128.379.379,3.326,3.326h2.187v-1.691A1.215,1.215,0,0,0,382.009,132.645Z" transform="translate(-355.208 -119.287)" fill="#f9d641"/>
      <path id="Path_11209" data-name="Path 11209" d="M127.254,86.122l-4.391-4.391-.379-.379-.128-.128h0l-.112-.112-.3.3-.636-.636a7.576,7.576,0,1,0-.893.893l.636.636-.3.3h0l.24.24.379.379,4.391,4.391a1.051,1.051,0,0,0,1.484,0,1.054,1.054,0,0,0,0-1.484Zm-7.265-5.775a6.311,6.311,0,1,1,0-8.928A6.3,6.3,0,0,1,119.989,80.347Z" transform="translate(-101.927 -68.3)" fill="#f9d641"/>
      <path id="Path_11210" data-name="Path 11210" d="M6.216,122.3H5.731a2.219,2.219,0,0,0-2.221,2.221v2.466a1.11,1.11,0,0,0,.5.926v2.377a.111.111,0,0,1-.061.1,19.423,19.423,0,0,0-3.51,2.254,1.213,1.213,0,0,0-.435.926v1.691H5.424a2.5,2.5,0,0,1,.87-1.468c.368-.3.742-.586,1.11-.848A8.687,8.687,0,0,1,6.216,122.3Z" transform="translate(0 -119.287)" fill="#f9d641"/>
    </g>
  </g>
</svg>
