<svg xmlns="http://www.w3.org/2000/svg" width="26.586" height="25.95" viewBox="0 0 26.586 25.95">
  <path id="Path_2286" data-name="Path 2286" d="M29.586,11.191a3.112,3.112,0,0,0-3.112-3.112h-.848V7.231a3.112,3.112,0,0,0-3.112-3.112H6.112A3.112,3.112,0,0,0,3,7.231V17.413a3.112,3.112,0,0,0,3.112,3.112H7.526v4.74A.848.848,0,0,0,8.9,25.93l1.829-1.447h6.129l6.827,5.4a.848.848,0,0,0,1.375-.664v-4.74h1.414a3.112,3.112,0,0,0,3.112-3.112ZM8.373,18.827H6.112A1.414,1.414,0,0,1,4.7,17.413V7.231A1.414,1.414,0,0,1,6.112,5.817h16.4A1.414,1.414,0,0,1,23.927,7.23V17.412a1.414,1.414,0,0,1-1.414,1.414H15.45a.848.848,0,0,0-.527.184l-5.7,4.5V19.675a.848.848,0,0,0-.852-.848Zm19.514,2.546a1.414,1.414,0,0,1-1.414,1.414H24.211a.848.848,0,0,0-.848.848v3.837l-5.7-4.5a.848.848,0,0,0-.527-.184H12.876l2.862-2.263h6.776a3.112,3.112,0,0,0,3.112-3.112V9.776h.847a1.414,1.414,0,0,1,1.414,1.414Z" transform="translate(-3 -4.119)" fill="#535353"/>
</svg>
