<svg xmlns="http://www.w3.org/2000/svg" width="26.978" height="26.334" viewBox="0 0 26.978 26.334">
  <path id="Path_2286" data-name="Path 2286" d="M29.978,11.3A3.158,3.158,0,0,0,26.82,8.137h-.861V7.277A3.158,3.158,0,0,0,22.8,4.119H6.158A3.158,3.158,0,0,0,3,7.277V17.61a3.158,3.158,0,0,0,3.158,3.158H7.593v4.81a.861.861,0,0,0,1.395.674l1.856-1.469h6.22l6.928,5.484a.861.861,0,0,0,1.395-.674v-4.81H26.82a3.158,3.158,0,0,0,3.158-3.158ZM8.452,19.044H6.158A1.434,1.434,0,0,1,4.724,17.61V7.277A1.434,1.434,0,0,1,6.158,5.842H22.8a1.434,1.434,0,0,1,1.434,1.434V17.608A1.434,1.434,0,0,1,22.8,19.043H15.634a.861.861,0,0,0-.534.187L9.317,23.8V19.9a.861.861,0,0,0-.865-.861Zm19.8,2.583a1.434,1.434,0,0,1-1.434,1.434h-2.3a.861.861,0,0,0-.861.861v3.894l-5.78-4.569a.861.861,0,0,0-.534-.187H13.022l2.9-2.3H22.8a3.158,3.158,0,0,0,3.158-3.158V9.859h.859a1.434,1.434,0,0,1,1.434,1.434Z" transform="translate(-3 -4.119)" fill="#f9d641"/>
</svg>
