<svg id="noun_message_1359650" xmlns="http://www.w3.org/2000/svg" width="20.499" height="20.01" viewBox="0 0 20.499 20.01">
  <path id="Path_2286" data-name="Path 2286" d="M23.5,9.572a2.4,2.4,0,0,0-2.4-2.4h-.654V6.519a2.4,2.4,0,0,0-2.4-2.4H5.4A2.4,2.4,0,0,0,3,6.519v7.851a2.4,2.4,0,0,0,2.4,2.4h1.09v3.655a.654.654,0,0,0,1.06.512L8.96,19.821h4.726l5.264,4.167a.654.654,0,0,0,1.06-.512V19.821H21.1a2.4,2.4,0,0,0,2.4-2.4ZM7.143,15.46H5.4a1.09,1.09,0,0,1-1.09-1.09V6.519A1.09,1.09,0,0,1,5.4,5.428H18.047a1.09,1.09,0,0,1,1.09,1.09v7.851a1.09,1.09,0,0,1-1.09,1.09H12.6a.654.654,0,0,0-.406.142L7.8,19.073V16.114A.654.654,0,0,0,7.143,15.46Zm15.047,1.963a1.09,1.09,0,0,1-1.09,1.09H19.356a.654.654,0,0,0-.654.654v2.959l-4.392-3.472a.654.654,0,0,0-.406-.142H10.615l2.207-1.745h5.225a2.4,2.4,0,0,0,2.4-2.4V8.481H21.1a1.09,1.09,0,0,1,1.09,1.09Z" transform="translate(-3 -4.12)" fill="#535353"/>
</svg>
