<svg xmlns="http://www.w3.org/2000/svg" width="27.245" height="27.245" viewBox="0 0 27.245 27.245">
  <g id="Group_9" data-name="Group 9" transform="translate(0.375 0.375)">
    <path id="Union_3" data-name="Union 3" d="M0,13.248A13.247,13.247,0,1,1,13.248,26.495,13.263,13.263,0,0,1,0,13.248Zm5.43,6.711-.5,2.107a12.1,12.1,0,0,0,16.639,0l-.5-2.107a4.724,4.724,0,0,0-4.612-3.643h-6.41A4.724,4.724,0,0,0,5.43,19.959ZM16.453,15.2a5.836,5.836,0,0,1,5.7,4.5l.334,1.4a12.132,12.132,0,1,0-18.472,0l.333-1.4a5.838,5.838,0,0,1,5.7-4.5Zm-8.5-6.135a5.3,5.3,0,1,1,5.3,5.3A5.3,5.3,0,0,1,7.948,9.064Zm1.115,0a4.184,4.184,0,1,0,4.184-4.183A4.189,4.189,0,0,0,9.064,9.064Z" fill="#f9d641" stroke="#f9d641" stroke-width="0.75"/>
  </g>
</svg>
