<svg xmlns="http://www.w3.org/2000/svg" width="20.997" height="14.698" viewBox="0 0 20.997 14.698">
  <path id="Icon_awesome-money-check" data-name="Icon awesome-money-check" d="M0,15.9a1.05,1.05,0,0,0,1.05,1.05h18.9A1.05,1.05,0,0,0,21,15.9V5.4H0ZM14.7,9.074a.525.525,0,0,1,.525-.525h3.15a.525.525,0,0,1,.525.525v1.05a.525.525,0,0,1-.525.525h-3.15a.525.525,0,0,1-.525-.525Zm0,3.937a.262.262,0,0,1,.262-.262h3.675a.262.262,0,0,1,.262.262v.525a.262.262,0,0,1-.262.262H14.961a.262.262,0,0,1-.262-.262ZM2.1,9.862A.262.262,0,0,1,2.362,9.6h9.974a.262.262,0,0,1,.262.262v.525a.262.262,0,0,1-.262.262H2.362a.262.262,0,0,1-.262-.262Zm0,3.15a.262.262,0,0,1,.262-.262H8.137a.262.262,0,0,1,.262.262v.525a.262.262,0,0,1-.262.262H2.362a.262.262,0,0,1-.262-.262ZM20.473,2.25H.525A.525.525,0,0,0,0,2.775V4.35H21V2.775A.525.525,0,0,0,20.473,2.25Z" transform="translate(0 -2.25)" fill="#535353"/>
</svg>
