<svg xmlns="http://www.w3.org/2000/svg" width="27.705" height="19.393" viewBox="0 0 27.705 19.393">
  <path id="Icon_awesome-money-check" data-name="Icon awesome-money-check" d="M0,20.258a1.385,1.385,0,0,0,1.385,1.385H26.32A1.385,1.385,0,0,0,27.7,20.258V6.406H0Zm19.393-9.005a.693.693,0,0,1,.693-.693h4.156a.693.693,0,0,1,.693.693v1.385a.693.693,0,0,1-.693.693H20.086a.693.693,0,0,1-.693-.693Zm0,5.194a.346.346,0,0,1,.346-.346h4.848a.346.346,0,0,1,.346.346v.693a.346.346,0,0,1-.346.346h-4.85a.346.346,0,0,1-.346-.346ZM2.77,12.292a.346.346,0,0,1,.346-.346H16.275a.346.346,0,0,1,.346.346v.693a.346.346,0,0,1-.346.346H3.116a.346.346,0,0,1-.346-.346Zm0,4.156a.346.346,0,0,1,.346-.346h7.619a.346.346,0,0,1,.346.346v.693a.346.346,0,0,1-.346.346H3.116a.346.346,0,0,1-.346-.346ZM27.01,2.25H.693A.693.693,0,0,0,0,2.943V5.021H27.7V2.943a.693.693,0,0,0-.7-.693Z" transform="translate(0 -2.25)" fill="#f9d641"/>
</svg>
