<svg xmlns="http://www.w3.org/2000/svg" width="25.794" height="25.794" viewBox="0 0 25.794 25.794">
  <path id="noun-log-out-4923519" d="M7.235,6.71a1.268,1.268,0,0,0-1.793,0L.371,11.781a1.268,1.268,0,0,0,0,1.793l5.071,5.071a1.268,1.268,0,1,0,1.793-1.793L4.328,13.946H19.017a1.268,1.268,0,1,0,0-2.535H4.328L7.235,8.5A1.268,1.268,0,0,0,7.235,6.71ZM21.552,0a3.8,3.8,0,0,1,3.8,3.8V21.552a3.8,3.8,0,0,1-3.8,3.8H13.946a3.8,3.8,0,0,1-3.8-3.8v-3.8a1.268,1.268,0,0,1,2.536,0v3.8a1.268,1.268,0,0,0,1.268,1.268h7.607a1.268,1.268,0,0,0,1.268-1.268V3.8a1.268,1.268,0,0,0-1.268-1.268H13.946A1.268,1.268,0,0,0,12.678,3.8v3.8a1.268,1.268,0,0,1-2.536,0V3.8a3.8,3.8,0,0,1,3.8-3.8Z" transform="matrix(-1, 0.017, -0.017, -1, 25.794, 25.352)" fill="#6c6c6c" fill-rule="evenodd"/>
</svg>