<svg id="Group_10814" data-name="Group 10814" xmlns="http://www.w3.org/2000/svg" xmlns:xlink="http://www.w3.org/1999/xlink" width="86.975" height="25.812" viewBox="0 0 86.975 25.812">
  <defs>
    <clipPath id="clip-path">
      <rect id="Rectangle_5407" data-name="Rectangle 5407" width="86.975" height="25.812" fill="none"/>
    </clipPath>
  </defs>
  <g id="Group_10813" data-name="Group 10813" clip-path="url(#clip-path)">
    <path id="Path_10737" data-name="Path 10737" d="M83.754,25.812H3.221A3.233,3.233,0,0,1,0,22.586V3.227A3.233,3.233,0,0,1,3.221,0H83.754a3.233,3.233,0,0,1,3.221,3.227V22.586a3.233,3.233,0,0,1-3.221,3.226"/>
    <path id="Path_10738" data-name="Path 10738" d="M286.657,49.2a1.749,1.749,0,0,1-.48,1.292,1.873,1.873,0,0,1-1.42.573,2.023,2.023,0,1,1,0-4.045,1.99,1.99,0,0,1,.793.162,1.6,1.6,0,0,1,.6.432l-.34.341a1.3,1.3,0,0,0-1.058-.459,1.546,1.546,0,1,0,1.08,2.661,1.219,1.219,0,0,0,.324-.784h-1.4v-.465h1.873a1.657,1.657,0,0,1,.027.292" transform="translate(-256.108 -42.59)" fill="#fff"/>
    <path id="Path_10739" data-name="Path 10739" d="M286.038,48.579h-.064a1.684,1.684,0,0,1-.461,1.247h0a1.808,1.808,0,0,1-1.374.553,1.958,1.958,0,1,1,0-3.916,1.928,1.928,0,0,1,.768.157,1.532,1.532,0,0,1,.581.415l.049-.042-.046-.046-.34.341.046.045.05-.041a1.371,1.371,0,0,0-1.108-.483,1.611,1.611,0,1,0,1.125,2.771,1.285,1.285,0,0,0,.343-.824l.006-.07H284.2v-.336h1.809v-.065l-.063.011a1.577,1.577,0,0,1,.026.281h.129a1.7,1.7,0,0,0-.028-.3l-.009-.053h-1.991v.594h1.468v-.064l-.064-.006a1.156,1.156,0,0,1-.306.744,1.473,1.473,0,0,1-2.045,0,1.558,1.558,0,0,1,0-2.141,1.4,1.4,0,0,1,1.011-.412,1.24,1.24,0,0,1,1.009.436l.045.054.389-.39.042-.042-.038-.045a1.656,1.656,0,0,0-.628-.45,2.054,2.054,0,0,0-.819-.168,2.087,2.087,0,1,0,0,4.174,1.939,1.939,0,0,0,1.467-.593l-.047-.045.046.046a1.814,1.814,0,0,0,.5-1.338h-.064m2.97-1.617h-1.76V48.19h1.588v.465h-1.588v1.228h1.76v.476h-2.257V46.486h2.257v.476" transform="translate(-255.488 -41.969)" fill="#fff"/>
    <path id="Path_10740" data-name="Path 10740" d="M333.432,47.8v-.065h-1.825v1.357h1.587v.336h-1.587v1.357h1.76v.347H331.24V47.385h2.128V47.8h.064v0h.064v-.54h-2.385v4H333.5v-.6h-1.76v-1.1h1.588v-.594h-1.588v-1.1h1.76V47.8h-.064m2.095,3.4h-.5V47.8h-1.08V47.32h2.656V47.8h-1.08v3.4" transform="translate(-299.913 -42.803)" fill="#fff"/>
    <path id="Path_10741" data-name="Path 10741" d="M362.2,51.192v-.065h-.433v-3.4h-1.08v-.347h2.527v.347h-1.08v3.461h.064v0h.064V47.861h1.08v-.6h-2.785v.6h1.08v3.4h.626v-.065H362.2m3,0V47.32h.5v3.872h-.5" transform="translate(-326.585 -42.803)" fill="#fff"/>
    <path id="Path_10742" data-name="Path 10742" d="M409.212,51.192h.064V47.385h.368v3.743h-.432v.065h0v.065h.561v-4h-.625v4h.064v-.065m2.7,0h-.5V47.8h-1.08V47.32h2.656V47.8h-1.08v3.4" transform="translate(-370.597 -42.803)" fill="#fff"/>
    <path id="Path_10743" data-name="Path 10743" d="M422.71,50.98v-.065h-.433v-3.4H421.2v-.347h2.527v.347h-1.08v3.461h.064v0h.064V47.648h1.08v-.6h-2.785v.6h1.079v3.4h.626v-.065h-.064m3.641-.824a1.485,1.485,0,0,0,2.1,0,1.652,1.652,0,0,0,0-2.223,1.485,1.485,0,0,0-2.1,0,1.654,1.654,0,0,0,0,2.223m2.468.324a2,2,0,0,1-2.834,0,2.094,2.094,0,0,1,0-2.871,2,2,0,0,1,2.832,0,2.088,2.088,0,0,1,0,2.869" transform="translate(-381.395 -42.591)" fill="#fff"/>
    <path id="Path_10744" data-name="Path 10744" d="M467.5,49.534l-.046.045a1.549,1.549,0,0,0,2.192,0,1.716,1.716,0,0,0,0-2.314,1.549,1.549,0,0,0-2.192,0,1.718,1.718,0,0,0,0,2.314l.046-.045.046-.045a1.59,1.59,0,0,1,0-2.132,1.42,1.42,0,0,1,2.009,0,1.588,1.588,0,0,1,0,2.132,1.421,1.421,0,0,1-2.009,0Zm2.467.324-.046-.045a1.941,1.941,0,0,1-2.742,0l0,0,0,0a2.03,2.03,0,0,1,0-2.781,1.934,1.934,0,0,1,2.74,0,2.023,2.023,0,0,1,0,2.779l.046.045.046.045a2.152,2.152,0,0,0,0-2.958,2.062,2.062,0,0,0-2.924,0h0a2.159,2.159,0,0,0,0,2.961l0,0,0,0a2.069,2.069,0,0,0,2.927,0Zm1.267.5V46.486h.6l1.879,3.012h.022l-.022-.746V46.486h.5v3.872H473.7L471.735,47.2h-.021l.021.746v2.412h-.5" transform="translate(-422.549 -41.969)" fill="#fff"/>
    <path id="Path_10745" data-name="Path 10745" d="M302.876,51.192h.064V47.385h.5l1.879,3.012h.123l-.023-.812v-2.2h.368v3.743h-.418l-1.966-3.158h-.123l.023.812v2.346h-.432v.065h0v.065h.561V48.78l-.021-.747-.064,0V48.1h.021v-.065l-.055.034,1.984,3.188h.619v-4h-.626v2.331l.021.747.064,0v-.065h-.021v.065l.055-.034-1.9-3.042h-.7v4h.064v-.065m20.2,10.97h1.2V54.1h-1.2ZM333.908,57l-1.378,3.5h-.041l-1.43-3.5h-1.3l2.145,4.888-1.223,2.719h1.254l3.3-7.607Zm-6.818,4.245c-.394,0-.943-.2-.943-.685,0-.623.684-.861,1.274-.861a2.137,2.137,0,0,1,1.1.27A1.458,1.458,0,0,1,327.091,61.246Zm.145-4.421a2.256,2.256,0,0,0-2.145,1.235l1.067.446a1.139,1.139,0,0,1,1.1-.592,1.158,1.158,0,0,1,1.264,1.038v.083a2.656,2.656,0,0,0-1.254-.311c-1.15,0-2.321.633-2.321,1.816a1.862,1.862,0,0,0,2,1.775,1.7,1.7,0,0,0,1.534-.789h.041v.623h1.16V59.056A2.211,2.211,0,0,0,327.236,56.825Zm-7.43,1.158H318.1V55.218h1.71a1.383,1.383,0,1,1,0,2.765m-.031-3.888h-2.881v8.067h1.2V59.106h1.679a2.509,2.509,0,1,0,0-5.011Zm-15.708,7.152a1.67,1.67,0,0,1,0-3.327,1.677,1.677,0,0,1,0,3.327Zm1.38-3.795h-.041a1.9,1.9,0,0,0-1.443-.613,2.747,2.747,0,0,0,0,5.489,1.867,1.867,0,0,0,1.443-.624h.041V62.1c0,1.05-.56,1.612-1.463,1.612a1.517,1.517,0,0,1-1.381-.977l-1.048.437a2.612,2.612,0,0,0,2.429,1.622c1.412,0,2.605-.832,2.605-2.859V57.006h-1.142Zm1.972,4.709h1.2V54.1h-1.2ZM310.4,59.5a1.5,1.5,0,0,1,1.432-1.6,1.06,1.06,0,0,1,1.017.582Zm3.737-.915a2.547,2.547,0,0,0-2.346-1.747,2.606,2.606,0,0,0-2.584,2.745,2.684,2.684,0,0,0,2.719,2.745,2.725,2.725,0,0,0,2.284-1.216l-.934-.624a1.564,1.564,0,0,1-1.35.759,1.394,1.394,0,0,1-1.329-.832l3.664-1.518Zm-29.19-.9v1.164h2.782a2.431,2.431,0,0,1-.633,1.466,2.844,2.844,0,0,1-2.148.853,3.1,3.1,0,0,1,0-6.2,2.962,2.962,0,0,1,2.1.832l.82-.821a4.051,4.051,0,0,0-2.917-1.175,4.263,4.263,0,1,0,0,8.525,3.769,3.769,0,0,0,3.975-3.919,3.785,3.785,0,0,0-.062-.728Zm7.138,3.566a1.668,1.668,0,1,1,1.546-1.663,1.587,1.587,0,0,1-1.546,1.663m0-4.408a2.745,2.745,0,1,0,2.75,2.745,2.7,2.7,0,0,0-2.75-2.745m6,4.408a1.668,1.668,0,1,1,1.547-1.663A1.587,1.587,0,0,1,298.083,61.248Zm0-4.408a2.745,2.745,0,1,0,2.751,2.745A2.7,2.7,0,0,0,298.083,56.84Z" transform="translate(-254.186 -42.803)" fill="#fff"/>
    <path id="Path_10746" data-name="Path 10746" d="M68.535,50.114a1.247,1.247,0,0,0-.345.954V65.151a1.294,1.294,0,0,0,.3.907l.048.046h0a.828.828,0,0,0,.569.21,1.483,1.483,0,0,0,.722-.217l9.352-5.322,3.212-1.828a1.2,1.2,0,0,0,.675-.837h0a1.2,1.2,0,0,0-.675-.837l-3.212-1.828-9.351-5.322A1.485,1.485,0,0,0,69.1,49.9a.828.828,0,0,0-.569.209Z" transform="translate(-61.765 -45.203)" fill="#00c1ff"/>
  </g>
</svg>
