<svg xmlns="http://www.w3.org/2000/svg" width="17.343" height="17.343" viewBox="0 0 17.343 17.343">
  <path id="Icon_awesome-facebook-square" data-name="Icon awesome-facebook-square" d="M15.485,2.25H1.858A1.858,1.858,0,0,0,0,4.108V17.735a1.858,1.858,0,0,0,1.858,1.858H7.172V13.7H4.733V10.922H7.172V8.806A3.387,3.387,0,0,1,10.8,5.071a14.775,14.775,0,0,1,2.149.187V7.62H11.737a1.388,1.388,0,0,0-1.565,1.5v1.8h2.663L12.409,13.7H10.172v5.9h5.313a1.858,1.858,0,0,0,1.858-1.858V4.108A1.858,1.858,0,0,0,15.485,2.25Z" transform="translate(0 -2.25)"/>
</svg>
