<svg xmlns="http://www.w3.org/2000/svg" width="17.347" height="17.343" viewBox="0 0 17.347 17.343">
  <path id="Icon_awesome-instagram" data-name="Icon awesome-instagram" d="M8.67,6.463a4.447,4.447,0,1,0,4.447,4.447A4.44,4.44,0,0,0,8.67,6.463Zm0,7.338a2.891,2.891,0,1,1,2.891-2.891A2.9,2.9,0,0,1,8.67,13.8Zm5.666-7.519A1.037,1.037,0,1,1,13.3,5.244,1.035,1.035,0,0,1,14.336,6.281Zm2.945,1.053A5.133,5.133,0,0,0,15.88,3.7a5.166,5.166,0,0,0-3.634-1.4c-1.432-.081-5.724-.081-7.156,0A5.159,5.159,0,0,0,1.457,3.7,5.149,5.149,0,0,0,.056,7.33c-.081,1.432-.081,5.724,0,7.156a5.133,5.133,0,0,0,1.4,3.634,5.173,5.173,0,0,0,3.634,1.4c1.432.081,5.724.081,7.156,0a5.133,5.133,0,0,0,3.634-1.4,5.166,5.166,0,0,0,1.4-3.634c.081-1.432.081-5.72,0-7.152Zm-1.85,8.688a2.927,2.927,0,0,1-1.649,1.649c-1.142.453-3.851.348-5.112.348s-3.974.1-5.112-.348a2.927,2.927,0,0,1-1.649-1.649c-.453-1.142-.348-3.851-.348-5.112s-.1-3.974.348-5.112A2.927,2.927,0,0,1,3.558,4.149C4.7,3.7,7.409,3.8,8.67,3.8s3.974-.1,5.112.348A2.927,2.927,0,0,1,15.431,5.8c.453,1.142.348,3.851.348,5.112S15.884,14.884,15.431,16.022Z" transform="translate(0.005 -2.238)"/>
</svg>
