<svg xmlns="http://www.w3.org/2000/svg" width="28.069" height="27.399" viewBox="0 0 28.069 27.399">
  <path id="Path_2286" data-name="Path 2286" d="M31.069,11.585A3.286,3.286,0,0,0,27.783,8.3h-.9V7.405A3.286,3.286,0,0,0,23.6,4.119H6.286A3.286,3.286,0,0,0,3,7.405v10.75a3.286,3.286,0,0,0,3.286,3.286H7.779v5a.9.9,0,0,0,1.451.7l1.931-1.528h6.471l7.208,5.706a.9.9,0,0,0,1.451-.7v-5h1.492a3.286,3.286,0,0,0,3.286-3.286Zm-22.4,8.062H6.286a1.492,1.492,0,0,1-1.492-1.492V7.405A1.492,1.492,0,0,1,6.286,5.911H23.6A1.492,1.492,0,0,1,25.1,7.4v10.75A1.492,1.492,0,0,1,23.6,19.646H16.145a.9.9,0,0,0-.556.194L9.572,24.595V20.543a.9.9,0,0,0-.9-.9Zm20.6,2.688a1.492,1.492,0,0,1-1.492,1.492H25.4a.9.9,0,0,0-.9.9v4.052l-6.014-4.754a.9.9,0,0,0-.556-.194h-4.5l3.022-2.389H23.6a3.286,3.286,0,0,0,3.286-3.286V10.092h.894a1.492,1.492,0,0,1,1.492,1.492Z" transform="translate(-3 -4.119)" fill="#535353"/>
</svg>
