<svg xmlns="http://www.w3.org/2000/svg" width="45.499" height="45.5" viewBox="0 0 45.499 45.5">
  <g id="noun-category-3492490" transform="translate(0.25 0.25)">
    <path id="Path_2546" data-name="Path 2546" d="M166.766,98H147.739A1.238,1.238,0,0,1,146.5,96.76V84.508a8.048,8.048,0,0,1,8.012-8.012h12.252A1.239,1.239,0,0,1,168,77.734V96.761A1.239,1.239,0,0,1,166.765,98Zm-17.788-2.476h16.55V78.972H154.513a5.573,5.573,0,0,0-5.535,5.535Z" transform="translate(-146.501 -76.496)" fill="#fff" stroke="#fff" stroke-width="0.5"/>
    <path id="Path_2547" data-name="Path 2547" d="M379.276,97.995H360.249a1.238,1.238,0,0,1-1.238-1.238V77.73a1.238,1.238,0,0,1,1.238-1.238H372.5a8.048,8.048,0,0,1,8.012,8.012V96.756a1.239,1.239,0,0,1-1.238,1.238Zm-17.788-2.476h16.55V84.5a5.573,5.573,0,0,0-5.535-5.535H361.487Z" transform="translate(-335.516 -76.492)" fill="#fff" stroke="#fff" stroke-width="0.5"/>
    <path id="Path_2548" data-name="Path 2548" d="M166.769,310.518H154.517a8.048,8.048,0,0,1-8.012-8.012V290.254a1.238,1.238,0,0,1,1.238-1.238H166.77a1.239,1.239,0,0,1,1.238,1.238v19.027a1.239,1.239,0,0,1-1.238,1.238Zm-17.788-19.026v11.015a5.573,5.573,0,0,0,5.535,5.535h11.015v-16.55Z" transform="translate(-146.505 -265.519)" fill="#fff" stroke="#fff" stroke-width="0.5"/>
    <path id="Path_2549" data-name="Path 2549" d="M369.736,310.466a10.761,10.761,0,1,1,7.584-3.152A10.754,10.754,0,0,1,369.736,310.466Zm0-19.026a8.284,8.284,0,1,0,5.844,2.437,8.278,8.278,0,0,0-5.844-2.437Z" transform="translate(-335.473 -265.467)" fill="#fff" stroke="#fff" stroke-width="0.5"/>
  </g>
</svg>
