<svg id="noun-wait-2931164" xmlns="http://www.w3.org/2000/svg" width="45.934" height="45.458" viewBox="0 0 45.934 45.458">
  <path id="Path_2499" data-name="Path 2499" d="M127.517,18.993a2.474,2.474,0,0,0-2.464,2.464v3.478L123.122,23a22.586,22.586,0,0,0-16.135-6.763,22.915,22.915,0,0,0-22.85,24.3,2.47,2.47,0,0,0,2.415,2.319H86.7a2.438,2.438,0,0,0,2.271-2.609,18.026,18.026,0,0,1,30.725-13.816l1.932,1.932h-3.478a2.392,2.392,0,0,0-2.415,2.415,2.474,2.474,0,0,0,2.464,2.464h9.372a2.474,2.474,0,0,0,2.464-2.464V21.408a2.506,2.506,0,0,0-2.512-2.415Z" transform="translate(-84.096 -16.239)" fill="#fff"/>
  <path id="Path_2500" data-name="Path 2500" d="M329.877,146.353l-5.749-1.594V136.3a2.464,2.464,0,0,0-4.927,0v10.29a2.436,2.436,0,0,0,1.787,2.367l7.536,2.126a3.272,3.272,0,0,0,.676.1,2.523,2.523,0,0,0,2.367-1.787,2.42,2.42,0,0,0-1.691-3.044Z" transform="translate(-298.919 -123.696)" fill="#fff"/>
  <path id="Path_2501" data-name="Path 2501" d="M212.564,463.094a17.164,17.164,0,0,1-3.333-1.5,2.2,2.2,0,0,0-2.174,3.816,18.768,18.768,0,0,0,4.155,1.836,1.76,1.76,0,0,0,.676.1,2.174,2.174,0,0,0,2.077-1.5A2.225,2.225,0,0,0,212.564,463.094Z" transform="translate(-195.423 -422.901)" fill="#fff"/>
  <path id="Path_2502" data-name="Path 2502" d="M116.086,363.591a2.193,2.193,0,1,0-3.913,1.981,22.153,22.153,0,0,0,2.415,3.816,2.221,2.221,0,0,0,1.739.821,2.024,2.024,0,0,0,1.353-.483,2.221,2.221,0,0,0,.387-3.092,16.468,16.468,0,0,1-1.981-3.043Z" transform="translate(-109.524 -332.528)" fill="#fff"/>
  <path id="Path_2503" data-name="Path 2503" d="M470.017,413.781c-.242.29-.531.58-.773.821a21.087,21.087,0,0,1-1.932,1.691,2.222,2.222,0,0,0-.435,3.092,2.194,2.194,0,0,0,1.739.869,2.119,2.119,0,0,0,1.3-.435,23.571,23.571,0,0,0,2.367-2.077c.338-.339.676-.676.966-1.015a2.161,2.161,0,0,0-.193-3.092,2.065,2.065,0,0,0-3.044.145Z" transform="translate(-433.456 -378.805)" fill="#fff"/>
  <path id="Path_2504" data-name="Path 2504" d="M343.923,484.812a15.317,15.317,0,0,1-3.623.58,2.241,2.241,0,0,0-2.077,2.319,2.211,2.211,0,0,0,2.174,2.077h.145a23.577,23.577,0,0,0,4.493-.725,2.2,2.2,0,0,0-1.111-4.251Z" transform="translate(-316.298 -444.329)" fill="#fff"/>
</svg>
