<svg xmlns="http://www.w3.org/2000/svg" width="45" height="45" viewBox="0 0 45 45">
  <g id="noun-done-1482838" transform="translate(-0.001 0)">
    <path id="Path_2544" data-name="Path 2544" d="M232.216,53.34a70.4,70.4,0,0,0-19.125,22.3,40.035,40.035,0,0,0-5.821-4.891c-3.082-2.152-6.065,2.935-2.984,5.087a32.989,32.989,0,0,1,7.386,7.141,2.944,2.944,0,0,0,4.6-.587A63.047,63.047,0,0,1,235.2,58.525a3.055,3.055,0,0,0,1.076-4.011,2.966,2.966,0,0,0-4.06-1.174Z" transform="translate(-193.329 -50.259)" fill="#fff"/>
    <path id="Path_2545" data-name="Path 2545" d="M132.606,36.044a2.944,2.944,0,0,0-1.908,3.717,16.62,16.62,0,1,1-15.8-11.494,15.626,15.626,0,0,1,4.5.636,2.943,2.943,0,1,0,1.565-5.674A22.97,22.97,0,0,0,114.9,22.4a22.5,22.5,0,1,0,22.5,22.5,23.683,23.683,0,0,0-1.076-6.946,2.964,2.964,0,0,0-3.718-1.908Z" transform="translate(-92.399 -22.397)" fill="#fff"/>
  </g>
</svg>
