<svg id="Group_10812" data-name="Group 10812" xmlns="http://www.w3.org/2000/svg" xmlns:xlink="http://www.w3.org/1999/xlink" width="78.909" height="25.812" viewBox="0 0 78.909 25.812">
  <defs>
    <clipPath id="clip-path">
      <rect id="Rectangle_5406" data-name="Rectangle 5406" width="78.909" height="25.812" fill="none"/>
    </clipPath>
  </defs>
  <g id="Group_10811" data-name="Group 10811" clip-path="url(#clip-path)">
    <path id="Path_10714" data-name="Path 10714" d="M78.909,22.324a3.488,3.488,0,0,1-3.487,3.488H3.488A3.489,3.489,0,0,1,0,22.324V3.488A3.489,3.489,0,0,1,3.488,0H75.422a3.488,3.488,0,0,1,3.487,3.488Z" fill="#1a1818"/>
    <path id="Path_10715" data-name="Path 10715" d="M50.28,62.944A12.779,12.779,0,0,1,49.125,65.1c-.751,1.143-1.808,2.565-3.119,2.577-1.165.011-1.464-.758-3.044-.749s-1.91.763-3.075.752c-1.31-.012-2.313-1.3-3.063-2.439-2.1-3.195-2.318-6.944-1.024-8.937a4.644,4.644,0,0,1,3.735-2.245c1.389,0,2.262.762,3.411.762,1.114,0,1.793-.763,3.4-.763a4.533,4.533,0,0,1,3.417,1.8,3.91,3.91,0,0,0,.519,7.081" transform="translate(-29.703 -45.882)" fill="#fff"/>
    <path id="Path_10716" data-name="Path 10716" d="M86.35,29.418a3.9,3.9,0,0,0,.866-2.888A4.213,4.213,0,0,0,84.5,27.993a3.619,3.619,0,0,0-.889,2.817,3.555,3.555,0,0,0,2.742-1.392" transform="translate(-70.927 -22.517)" fill="#fff"/>
    <path id="Path_10717" data-name="Path 10717" d="M161.447,68.6l-3.006,8.849h1.377l.9-2.717h2.911l.923,2.717h1.415L162.944,68.6Zm.713,1.455c.1.395.211.805.352,1.248l.81,2.346h-2.306l.8-2.362c.122-.383.237-.8.345-1.233" transform="translate(-134.477 -58.22)" fill="#fff"/>
    <path id="Path_10718" data-name="Path 10718" d="M214.779,83.761a2.5,2.5,0,0,0-2.128,1.021l-.053-.88h-1.225l.007.113c.036.548.051,1.152.051,2.018v6.821h1.339V89.67a2.351,2.351,0,0,0,1.83.786,2.76,2.76,0,0,0,2.029-.862,3.658,3.658,0,0,0,.9-2.575,3.561,3.561,0,0,0-.778-2.351,2.547,2.547,0,0,0-1.968-.907m-.334,1.108c1.194,0,1.728,1.105,1.728,2.2,0,1.413-.682,2.291-1.778,2.291a1.623,1.623,0,0,1-1.577-1.242,1.708,1.708,0,0,1-.048-.433V86.609a2.014,2.014,0,0,1,.043-.33c.007-.037.014-.073.019-.109a1.7,1.7,0,0,1,1.614-1.3" transform="translate(-179.402 -71.092)" fill="#fff"/>
    <path id="Path_10719" data-name="Path 10719" d="M260.361,83.761a2.506,2.506,0,0,0-2.129,1.021l-.053-.88h-1.224l.007.113c.036.549.052,1.152.052,2.018v6.821h1.339V89.67a2.35,2.35,0,0,0,1.83.786,2.763,2.763,0,0,0,2.03-.862,3.662,3.662,0,0,0,.9-2.575,3.562,3.562,0,0,0-.778-2.351,2.546,2.546,0,0,0-1.967-.907m-.333,1.108c1.193,0,1.727,1.105,1.727,2.2,0,1.413-.682,2.291-1.778,2.291a1.623,1.623,0,0,1-1.577-1.242,1.71,1.71,0,0,1-.047-.433V86.609a1.97,1.97,0,0,1,.043-.332c.007-.036.013-.072.019-.108a1.694,1.694,0,0,1,1.614-1.3" transform="translate(-218.09 -71.092)" fill="#fff"/>
    <path id="Path_10720" data-name="Path 10720" d="M318.692,71.553c-1.249-.484-1.65-.864-1.65-1.567,0-.592.47-1.189,1.522-1.189a3.043,3.043,0,0,1,1.572.395l.113.07.378-1.117-.075-.044a3.88,3.88,0,0,0-1.95-.437c-1.707,0-2.9,1.008-2.9,2.451,0,1.164.747,1.977,2.35,2.56,1.136.425,1.559.86,1.559,1.606,0,.844-.652,1.368-1.7,1.368a3.664,3.664,0,0,1-1.93-.547l-.116-.074-.359,1.143.066.044a4.586,4.586,0,0,0,2.263.582c2.3,0,3.117-1.4,3.117-2.6,0-1.239-.654-2-2.258-2.636" transform="translate(-267.784 -57.429)" fill="#fff"/>
    <path id="Path_10721" data-name="Path 10721" d="M354.678,74.613l-1.313.412v1.112H352.4v1.07h.961v3.278a2.506,2.506,0,0,0,.464,1.7,1.716,1.716,0,0,0,1.3.509,3.149,3.149,0,0,0,1.035-.16l.075-.026-.064-1.072-.128.039a2.016,2.016,0,0,1-.623.072c-.519,0-.74-.328-.74-1.1V77.207h1.615v-1.07h-1.615Z" transform="translate(-299.102 -63.328)" fill="#fff"/>
    <path id="Path_10722" data-name="Path 10722" d="M382.2,83.761a3.153,3.153,0,0,0-3.181,3.4,3.055,3.055,0,0,0,3.079,3.3h.012a3.156,3.156,0,0,0,3.181-3.412,3.384,3.384,0,0,0-.853-2.368,2.979,2.979,0,0,0-2.238-.916m-.039,1.057c1.2,0,1.753,1.174,1.753,2.266,0,1.342-.748,2.316-1.778,2.316h-.013c-1.015,0-1.752-.958-1.752-2.278,0-1.147.554-2.3,1.791-2.3" transform="translate(-321.693 -71.092)" fill="#fff"/>
    <path id="Path_10723" data-name="Path 10723" d="M428.9,83.823l-.08-.02a1.29,1.29,0,0,0-.333-.042,1.909,1.909,0,0,0-1.679,1.078l-.039-.937h-1.2l.008.113c.036.53.051,1.125.051,1.928l-.012,4.374h1.339V86.9a3.452,3.452,0,0,1,.037-.519,1.48,1.48,0,0,1,1.409-1.349,3.424,3.424,0,0,1,.359.022l.143.015Z" transform="translate(-361.202 -71.092)" fill="#fff"/>
    <path id="Path_10724" data-name="Path 10724" d="M450.517,83.677c-1.782,0-3.027,1.424-3.027,3.463a2.994,2.994,0,0,0,3.155,3.233,5.137,5.137,0,0,0,2.12-.407l.081-.036-.257-1-.112.045a4.148,4.148,0,0,1-1.677.3,1.861,1.861,0,0,1-2.005-1.941l4.321.013.017-.085a2.994,2.994,0,0,0,.04-.559c0-1.4-.7-3.028-2.656-3.028m-.089,1.019a1.321,1.321,0,0,1,.983.375,1.905,1.905,0,0,1,.461,1.246h-3.053a1.709,1.709,0,0,1,1.609-1.621" transform="translate(-379.806 -71.021)" fill="#fff"/>
    <path id="Path_10725" data-name="Path 10725" d="M158.44,28.143a9.761,9.761,0,0,1,1.284-.087,2.866,2.866,0,0,1,1.885.516,1.833,1.833,0,0,1,.663,1.51,2.12,2.12,0,0,1-.669,1.628,3.108,3.108,0,0,1-2.065.6,9.32,9.32,0,0,1-1.1-.05Zm.608,3.71a4.34,4.34,0,0,0,.608.025c1.284.006,1.981-.646,1.981-1.777.007-1-.615-1.616-1.885-1.616a3.817,3.817,0,0,0-.7.056Z" transform="translate(-134.476 -23.812)" fill="#fff"/>
    <path id="Path_10726" data-name="Path 10726" d="M189.025,38.758a1.509,1.509,0,0,1-1.6-1.547,1.551,1.551,0,0,1,1.657-1.6,1.5,1.5,0,0,1,1.609,1.541,1.557,1.557,0,0,1-1.657,1.6Zm.021-.41a1.07,1.07,0,0,0,1.015-1.174,1.022,1.022,0,1,0-1.022,1.174Z" transform="translate(-159.075 -30.227)" fill="#fff"/>
    <path id="Path_10727" data-name="Path 10727" d="M211.882,36.065l.449,1.522c.09.335.18.652.242.963h.021c.076-.3.186-.628.3-.957l.545-1.529h.511l.518,1.5c.124.354.221.677.3.982h.021a8.323,8.323,0,0,1,.255-.976l.476-1.51h.6l-1.077,3.007h-.552l-.511-1.435a9.9,9.9,0,0,1-.3-.994h-.014a8.3,8.3,0,0,1-.3,1l-.538,1.429h-.552l-1.008-3.007Z" transform="translate(-179.307 -30.61)" fill="#fff"/>
    <path id="Path_10728" data-name="Path 10728" d="M247.215,36.5c0-.317-.007-.565-.028-.814h.539l.034.491h.014a1.266,1.266,0,0,1,1.1-.559,1.144,1.144,0,0,1,1.181,1.28v1.8h-.607V36.956c0-.485-.2-.895-.773-.895a.867.867,0,0,0-.815.559.737.737,0,0,0-.041.255V38.69h-.608Z" transform="translate(-209.8 -30.227)" fill="#fff"/>
    <rect id="Rectangle_5405" data-name="Rectangle 5405" width="0.608" height="4.412" transform="translate(41.247 4.051)" fill="#fff"/>
    <path id="Path_10729" data-name="Path 10729" d="M283.392,38.758a1.51,1.51,0,0,1-1.6-1.547,1.551,1.551,0,0,1,1.657-1.6,1.5,1.5,0,0,1,1.609,1.541,1.557,1.557,0,0,1-1.657,1.6Zm.02-.41a1.07,1.07,0,0,0,1.015-1.174,1.022,1.022,0,1,0-1.022,1.174Z" transform="translate(-239.169 -30.227)" fill="#fff"/>
    <path id="Path_10730" data-name="Path 10730" d="M309.333,37.97a4.553,4.553,0,0,0,.048.721h-.546l-.055-.379h-.02a1.285,1.285,0,0,1-1.022.447.911.911,0,0,1-1.022-.864c0-.727.718-1.125,2.009-1.118v-.062c0-.248-.076-.7-.759-.7a1.745,1.745,0,0,0-.877.223l-.138-.366a2.353,2.353,0,0,1,1.1-.261,1.118,1.118,0,0,1,1.277,1.23Zm-.594-.814c-.663-.012-1.415.093-1.415.677a.508.508,0,0,0,.566.522.843.843,0,0,0,.821-.5.5.5,0,0,0,.028-.174Z" transform="translate(-260.325 -30.228)" fill="#fff"/>
    <path id="Path_10731" data-name="Path 10731" d="M331.982,26.782v3.635c0,.267.007.572.028.777h-.545l-.028-.522h-.014a1.25,1.25,0,0,1-1.132.59,1.434,1.434,0,0,1-1.436-1.529,1.5,1.5,0,0,1,1.5-1.616,1.15,1.15,0,0,1,1.008.454h.014V26.782Zm-.607,2.628a.906.906,0,0,0-.028-.236.878.878,0,0,0-.876-.628,1.029,1.029,0,0,0-1,1.156,1,1,0,0,0,.988,1.118.9.9,0,0,0,.89-.652.847.847,0,0,0,.028-.236Z" transform="translate(-279.115 -22.731)" fill="#fff"/>
    <path id="Path_10732" data-name="Path 10732" d="M365.88,38.758a1.51,1.51,0,0,1-1.6-1.547,1.552,1.552,0,0,1,1.657-1.6,1.5,1.5,0,0,1,1.609,1.541,1.557,1.557,0,0,1-1.657,1.6Zm.021-.41a1.07,1.07,0,0,0,1.015-1.174,1.022,1.022,0,1,0-1.022,1.174Z" transform="translate(-309.18 -30.227)" fill="#fff"/>
    <path id="Path_10733" data-name="Path 10733" d="M390.785,36.5c0-.317-.007-.565-.028-.814h.539l.035.491h.013a1.266,1.266,0,0,1,1.1-.559,1.144,1.144,0,0,1,1.181,1.28v1.8h-.608V36.956c0-.485-.2-.895-.773-.895a.868.868,0,0,0-.815.559.745.745,0,0,0-.041.255V38.69h-.607Z" transform="translate(-331.654 -30.227)" fill="#fff"/>
    <path id="Path_10734" data-name="Path 10734" d="M424.555,31.3v.721h.87v.416h-.87v1.622c0,.373.118.584.456.584a1.259,1.259,0,0,0,.352-.037l.027.416a1.825,1.825,0,0,1-.538.075.921.921,0,0,1-.656-.23,1.092,1.092,0,0,1-.235-.789v-1.64h-.518v-.416h.518V31.47Z" transform="translate(-359.397 -26.568)" fill="#fff"/>
    <path id="Path_10735" data-name="Path 10735" d="M441.064,26.782h.607v1.876h.014a1.033,1.033,0,0,1,.435-.385,1.284,1.284,0,0,1,.621-.155,1.143,1.143,0,0,1,1.167,1.286v1.789H443.3V29.466c0-.491-.2-.895-.773-.895a.873.873,0,0,0-.815.547.6.6,0,0,0-.042.261v1.814h-.607Z" transform="translate(-374.352 -22.731)" fill="#fff"/>
    <path id="Path_10736" data-name="Path 10736" d="M465.389,37.244a1.018,1.018,0,0,0,1.14,1.044,2.532,2.532,0,0,0,.925-.149l.111.385a2.988,2.988,0,0,1-1.119.193A1.482,1.482,0,0,1,464.8,37.2a1.531,1.531,0,0,1,1.574-1.628,1.316,1.316,0,0,1,1.374,1.417,1.263,1.263,0,0,1-.02.261Zm1.775-.391a.807.807,0,0,0-.836-.889.946.946,0,0,0-.932.889Z" transform="translate(-394.5 -30.193)" fill="#fff"/>
  </g>
</svg>
