<svg xmlns="http://www.w3.org/2000/svg" width="44" height="44" viewBox="0 0 44 44">
  <g id="icon-visibility" style="isolation: isolate">
    <path id="icon-visibility-2" data-name="icon-visibility" d="M16.129,9.5a9.036,9.036,0,0,0-8.016-5A9.037,9.037,0,0,0,.1,9.5a.911.911,0,0,0,0,.822,9.036,9.036,0,0,0,8.016,5,9.037,9.037,0,0,0,8.016-5A.911.911,0,0,0,16.129,9.5ZM8.114,13.966A4.057,4.057,0,1,1,12.17,9.909,4.057,4.057,0,0,1,8.114,13.966Zm0-6.761a2.685,2.685,0,0,0-.713.107A1.348,1.348,0,0,1,5.516,9.2,2.7,2.7,0,1,0,8.114,7.2Z" transform="translate(9.273 7.091)" fill="#cdd4d9"/>
    <path id="Path_3951" data-name="Path 3951" d="M0,0H44V44H0Z" fill="#fff" opacity="0"/>
  </g>
</svg>
