<svg xmlns="http://www.w3.org/2000/svg" width="17.344" height="17.343" viewBox="0 0 17.344 17.343">
  <path id="Icon_ionic-logo-linkedin" data-name="Icon ionic-logo-linkedin" d="M20.457,4.5H5.982A1.415,1.415,0,0,0,4.5,5.851V20.357a1.526,1.526,0,0,0,1.482,1.486h14.47a1.449,1.449,0,0,0,1.391-1.486V5.851A1.33,1.33,0,0,0,20.457,4.5ZM9.876,18.957H7.391V11.231H9.876Zm-1.157-8.9H8.7a1.275,1.275,0,0,1-1.31-1.333A1.283,1.283,0,0,1,8.733,7.391a1.28,1.28,0,0,1,1.328,1.333A1.283,1.283,0,0,1,8.72,10.057Zm10.237,8.9H16.472V14.733c0-1.012-.361-1.7-1.26-1.7a1.359,1.359,0,0,0-1.274.917,1.673,1.673,0,0,0-.086.61v4.4H11.367V11.231h2.485v1.075a2.515,2.515,0,0,1,2.241-1.256c1.631,0,2.864,1.075,2.864,3.393v4.513Z" transform="translate(-4.5 -4.5)"/>
</svg>
