<svg xmlns="http://www.w3.org/2000/svg" width="17.343" height="17.343" viewBox="0 0 17.343 17.343">
  <path id="Icon_awesome-twitter-square" data-name="Icon awesome-twitter-square" d="M15.485,2.25H1.858A1.859,1.859,0,0,0,0,4.108V17.735a1.859,1.859,0,0,0,1.858,1.858H15.485a1.859,1.859,0,0,0,1.858-1.858V4.108A1.859,1.859,0,0,0,15.485,2.25ZM13.592,8.4c.008.108.008.221.008.329a7.175,7.175,0,0,1-7.224,7.224,7.191,7.191,0,0,1-3.9-1.138,5.349,5.349,0,0,0,.612.031,5.091,5.091,0,0,0,3.151-1.084A2.542,2.542,0,0,1,3.867,12a2.736,2.736,0,0,0,1.146-.046A2.539,2.539,0,0,1,2.981,9.458V9.427a2.537,2.537,0,0,0,1.146.321A2.534,2.534,0,0,1,3,7.635a2.507,2.507,0,0,1,.345-1.281A7.209,7.209,0,0,0,8.575,9.009,2.544,2.544,0,0,1,12.907,6.69a4.975,4.975,0,0,0,1.61-.612,2.532,2.532,0,0,1-1.115,1.4,5.053,5.053,0,0,0,1.463-.395A5.344,5.344,0,0,1,13.592,8.4Z" transform="translate(0 -2.25)"/>
</svg>
