<svg xmlns="http://www.w3.org/2000/svg" width="24.666" height="17.343" viewBox="0 0 24.666 17.343">
  <path id="Icon_awesome-youtube" data-name="Icon awesome-youtube" d="M25.2,7.214A3.1,3.1,0,0,0,23.02,5.019C21.1,4.5,13.383,4.5,13.383,4.5s-7.713,0-9.637.519A3.1,3.1,0,0,0,1.565,7.214a32.513,32.513,0,0,0-.515,5.976,32.513,32.513,0,0,0,.515,5.976,3.053,3.053,0,0,0,2.181,2.16c1.924.519,9.637.519,9.637.519s7.713,0,9.637-.519a3.053,3.053,0,0,0,2.181-2.16,32.513,32.513,0,0,0,.515-5.976A32.513,32.513,0,0,0,25.2,7.214ZM10.86,16.857V9.522l6.447,3.668L10.86,16.857Z" transform="translate(-1.05 -4.5)"/>
</svg>
